<mxfile host="app.diagrams.net" agent="Mozilla/5.0 (Windows NT 10.0; Win64; x64) AppleWebKit/537.36 (KHTML, like Gecko) Chrome/140.0.0.0 Safari/537.36" version="28.2.3">
  <diagram name="PÃ¡gina-1" id="nxPBbtS1HQVlopLpEBp2">
    <mxGraphModel dx="2911" dy="1124" grid="1" gridSize="10" guides="1" tooltips="1" connect="1" arrows="1" fold="1" page="1" pageScale="1" pageWidth="827" pageHeight="1169" background="#ffffff" math="0" shadow="0">
      <root>
        <mxCell id="0" />
        <mxCell id="1" parent="0" />
        <mxCell id="63zUbV-zmZv_8pJIS2f6-1" value="Paciente" style="swimlane;fontStyle=1;align=center;verticalAlign=top;childLayout=stackLayout;horizontal=1;startSize=33.142857142857146;horizontalStack=0;resizeParent=1;resizeParentMax=0;resizeLast=0;collapsible=0;marginBottom=0;" vertex="1" parent="1">
          <mxGeometry x="830" y="426" width="247" height="239.14285714285714" as="geometry" />
        </mxCell>
        <mxCell id="63zUbV-zmZv_8pJIS2f6-2" value="-int idPaciente" style="text;strokeColor=none;fillColor=none;align=left;verticalAlign=top;spacingLeft=4;spacingRight=4;overflow=hidden;rotatable=0;points=[[0,0.5],[1,0.5]];portConstraint=eastwest;" vertex="1" parent="63zUbV-zmZv_8pJIS2f6-1">
          <mxGeometry y="33.142857142857146" width="247" height="33" as="geometry" />
        </mxCell>
        <mxCell id="63zUbV-zmZv_8pJIS2f6-3" value="-string nome" style="text;strokeColor=none;fillColor=none;align=left;verticalAlign=top;spacingLeft=4;spacingRight=4;overflow=hidden;rotatable=0;points=[[0,0.5],[1,0.5]];portConstraint=eastwest;" vertex="1" parent="63zUbV-zmZv_8pJIS2f6-1">
          <mxGeometry y="66.14285714285714" width="247" height="33" as="geometry" />
        </mxCell>
        <mxCell id="63zUbV-zmZv_8pJIS2f6-4" value="-int numQuarto" style="text;strokeColor=none;fillColor=none;align=left;verticalAlign=top;spacingLeft=4;spacingRight=4;overflow=hidden;rotatable=0;points=[[0,0.5],[1,0.5]];portConstraint=eastwest;" vertex="1" parent="63zUbV-zmZv_8pJIS2f6-1">
          <mxGeometry y="99.14285714285714" width="247" height="33" as="geometry" />
        </mxCell>
        <mxCell id="63zUbV-zmZv_8pJIS2f6-5" value="-string codPulseira" style="text;strokeColor=none;fillColor=none;align=left;verticalAlign=top;spacingLeft=4;spacingRight=4;overflow=hidden;rotatable=0;points=[[0,0.5],[1,0.5]];portConstraint=eastwest;" vertex="1" parent="63zUbV-zmZv_8pJIS2f6-1">
          <mxGeometry y="132.14285714285714" width="247" height="33" as="geometry" />
        </mxCell>
        <mxCell id="63zUbV-zmZv_8pJIS2f6-6" style="line;strokeWidth=1;fillColor=none;align=left;verticalAlign=middle;spacingTop=-1;spacingLeft=3;spacingRight=3;rotatable=0;labelPosition=right;points=[];portConstraint=eastwest;strokeColor=inherit;" vertex="1" parent="63zUbV-zmZv_8pJIS2f6-1">
          <mxGeometry y="165.14285714285714" width="247" height="8" as="geometry" />
        </mxCell>
        <mxCell id="63zUbV-zmZv_8pJIS2f6-7" value="+validarDieta(codBandeja)" style="text;strokeColor=none;fillColor=none;align=left;verticalAlign=top;spacingLeft=4;spacingRight=4;overflow=hidden;rotatable=0;points=[[0,0.5],[1,0.5]];portConstraint=eastwest;" vertex="1" parent="63zUbV-zmZv_8pJIS2f6-1">
          <mxGeometry y="173.14285714285714" width="247" height="33" as="geometry" />
        </mxCell>
        <mxCell id="63zUbV-zmZv_8pJIS2f6-8" value="+obterHistoricoEntregas()" style="text;strokeColor=none;fillColor=none;align=left;verticalAlign=top;spacingLeft=4;spacingRight=4;overflow=hidden;rotatable=0;points=[[0,0.5],[1,0.5]];portConstraint=eastwest;" vertex="1" parent="63zUbV-zmZv_8pJIS2f6-1">
          <mxGeometry y="206.14285714285714" width="247" height="33" as="geometry" />
        </mxCell>
        <mxCell id="63zUbV-zmZv_8pJIS2f6-9" value="Bandeja" style="swimlane;fontStyle=1;align=center;verticalAlign=top;childLayout=stackLayout;horizontal=1;startSize=36.8;horizontalStack=0;resizeParent=1;resizeParentMax=0;resizeLast=0;collapsible=0;marginBottom=0;" vertex="1" parent="1">
          <mxGeometry y="430" width="293" height="192.8" as="geometry" />
        </mxCell>
        <mxCell id="63zUbV-zmZv_8pJIS2f6-10" value="-int idBandeja" style="text;strokeColor=none;fillColor=none;align=left;verticalAlign=top;spacingLeft=4;spacingRight=4;overflow=hidden;rotatable=0;points=[[0,0.5],[1,0.5]];portConstraint=eastwest;" vertex="1" parent="63zUbV-zmZv_8pJIS2f6-9">
          <mxGeometry y="36.8" width="293" height="37" as="geometry" />
        </mxCell>
        <mxCell id="63zUbV-zmZv_8pJIS2f6-11" value="-string codBandeja" style="text;strokeColor=none;fillColor=none;align=left;verticalAlign=top;spacingLeft=4;spacingRight=4;overflow=hidden;rotatable=0;points=[[0,0.5],[1,0.5]];portConstraint=eastwest;" vertex="1" parent="63zUbV-zmZv_8pJIS2f6-9">
          <mxGeometry y="73.8" width="293" height="37" as="geometry" />
        </mxCell>
        <mxCell id="63zUbV-zmZv_8pJIS2f6-12" value="-string tipoDieta" style="text;strokeColor=none;fillColor=none;align=left;verticalAlign=top;spacingLeft=4;spacingRight=4;overflow=hidden;rotatable=0;points=[[0,0.5],[1,0.5]];portConstraint=eastwest;" vertex="1" parent="63zUbV-zmZv_8pJIS2f6-9">
          <mxGeometry y="110.8" width="293" height="37" as="geometry" />
        </mxCell>
        <mxCell id="63zUbV-zmZv_8pJIS2f6-13" style="line;strokeWidth=1;fillColor=none;align=left;verticalAlign=middle;spacingTop=-1;spacingLeft=3;spacingRight=3;rotatable=0;labelPosition=right;points=[];portConstraint=eastwest;strokeColor=inherit;" vertex="1" parent="63zUbV-zmZv_8pJIS2f6-9">
          <mxGeometry y="147.8" width="293" height="8" as="geometry" />
        </mxCell>
        <mxCell id="63zUbV-zmZv_8pJIS2f6-14" value="+associarAoPaciente(codPulseira)" style="text;strokeColor=none;fillColor=none;align=left;verticalAlign=top;spacingLeft=4;spacingRight=4;overflow=hidden;rotatable=0;points=[[0,0.5],[1,0.5]];portConstraint=eastwest;" vertex="1" parent="63zUbV-zmZv_8pJIS2f6-9">
          <mxGeometry y="155.8" width="293" height="37" as="geometry" />
        </mxCell>
        <mxCell id="63zUbV-zmZv_8pJIS2f6-15" value="Copeira" style="swimlane;fontStyle=1;align=center;verticalAlign=top;childLayout=stackLayout;horizontal=1;startSize=40;horizontalStack=0;resizeParent=1;resizeParentMax=0;resizeLast=0;collapsible=0;marginBottom=0;" vertex="1" parent="1">
          <mxGeometry x="370" y="440.57" width="365" height="168" as="geometry" />
        </mxCell>
        <mxCell id="63zUbV-zmZv_8pJIS2f6-16" value="-int idCopeira" style="text;strokeColor=none;fillColor=none;align=left;verticalAlign=top;spacingLeft=4;spacingRight=4;overflow=hidden;rotatable=0;points=[[0,0.5],[1,0.5]];portConstraint=eastwest;" vertex="1" parent="63zUbV-zmZv_8pJIS2f6-15">
          <mxGeometry y="40" width="365" height="40" as="geometry" />
        </mxCell>
        <mxCell id="63zUbV-zmZv_8pJIS2f6-17" value="-string nome" style="text;strokeColor=none;fillColor=none;align=left;verticalAlign=top;spacingLeft=4;spacingRight=4;overflow=hidden;rotatable=0;points=[[0,0.5],[1,0.5]];portConstraint=eastwest;" vertex="1" parent="63zUbV-zmZv_8pJIS2f6-15">
          <mxGeometry y="80" width="365" height="40" as="geometry" />
        </mxCell>
        <mxCell id="63zUbV-zmZv_8pJIS2f6-18" style="line;strokeWidth=1;fillColor=none;align=left;verticalAlign=middle;spacingTop=-1;spacingLeft=3;spacingRight=3;rotatable=0;labelPosition=right;points=[];portConstraint=eastwest;strokeColor=inherit;" vertex="1" parent="63zUbV-zmZv_8pJIS2f6-15">
          <mxGeometry y="120" width="365" height="8" as="geometry" />
        </mxCell>
        <mxCell id="63zUbV-zmZv_8pJIS2f6-19" value="+registrarEntrega(codPulseira, codBandeja)" style="text;strokeColor=none;fillColor=none;align=left;verticalAlign=top;spacingLeft=4;spacingRight=4;overflow=hidden;rotatable=0;points=[[0,0.5],[1,0.5]];portConstraint=eastwest;" vertex="1" parent="63zUbV-zmZv_8pJIS2f6-15">
          <mxGeometry y="128" width="365" height="40" as="geometry" />
        </mxCell>
        <mxCell id="63zUbV-zmZv_8pJIS2f6-20" value="Entrega" style="swimlane;fontStyle=1;align=center;verticalAlign=top;childLayout=stackLayout;horizontal=1;startSize=33.142857142857146;horizontalStack=0;resizeParent=1;resizeParentMax=0;resizeLast=0;collapsible=0;marginBottom=0;" vertex="1" parent="1">
          <mxGeometry x="330" y="800" width="232" height="239.14285714285714" as="geometry" />
        </mxCell>
        <mxCell id="63zUbV-zmZv_8pJIS2f6-21" value="-int idEntrega" style="text;strokeColor=none;fillColor=none;align=left;verticalAlign=top;spacingLeft=4;spacingRight=4;overflow=hidden;rotatable=0;points=[[0,0.5],[1,0.5]];portConstraint=eastwest;" vertex="1" parent="63zUbV-zmZv_8pJIS2f6-20">
          <mxGeometry y="33.142857142857146" width="232" height="33" as="geometry" />
        </mxCell>
        <mxCell id="63zUbV-zmZv_8pJIS2f6-22" value="-datetime horaInicio" style="text;strokeColor=none;fillColor=none;align=left;verticalAlign=top;spacingLeft=4;spacingRight=4;overflow=hidden;rotatable=0;points=[[0,0.5],[1,0.5]];portConstraint=eastwest;" vertex="1" parent="63zUbV-zmZv_8pJIS2f6-20">
          <mxGeometry y="66.14285714285714" width="232" height="33" as="geometry" />
        </mxCell>
        <mxCell id="63zUbV-zmZv_8pJIS2f6-23" value="-datetime horaFim" style="text;strokeColor=none;fillColor=none;align=left;verticalAlign=top;spacingLeft=4;spacingRight=4;overflow=hidden;rotatable=0;points=[[0,0.5],[1,0.5]];portConstraint=eastwest;" vertex="1" parent="63zUbV-zmZv_8pJIS2f6-20">
          <mxGeometry y="99.14285714285714" width="232" height="33" as="geometry" />
        </mxCell>
        <mxCell id="63zUbV-zmZv_8pJIS2f6-24" value="-string status" style="text;strokeColor=none;fillColor=none;align=left;verticalAlign=top;spacingLeft=4;spacingRight=4;overflow=hidden;rotatable=0;points=[[0,0.5],[1,0.5]];portConstraint=eastwest;" vertex="1" parent="63zUbV-zmZv_8pJIS2f6-20">
          <mxGeometry y="132.14285714285714" width="232" height="33" as="geometry" />
        </mxCell>
        <mxCell id="63zUbV-zmZv_8pJIS2f6-25" value="-string observacao" style="text;strokeColor=none;fillColor=none;align=left;verticalAlign=top;spacingLeft=4;spacingRight=4;overflow=hidden;rotatable=0;points=[[0,0.5],[1,0.5]];portConstraint=eastwest;" vertex="1" parent="63zUbV-zmZv_8pJIS2f6-20">
          <mxGeometry y="165.14285714285714" width="232" height="33" as="geometry" />
        </mxCell>
        <mxCell id="63zUbV-zmZv_8pJIS2f6-26" style="line;strokeWidth=1;fillColor=none;align=left;verticalAlign=middle;spacingTop=-1;spacingLeft=3;spacingRight=3;rotatable=0;labelPosition=right;points=[];portConstraint=eastwest;strokeColor=inherit;" vertex="1" parent="63zUbV-zmZv_8pJIS2f6-20">
          <mxGeometry y="198.14285714285714" width="232" height="8" as="geometry" />
        </mxCell>
        <mxCell id="63zUbV-zmZv_8pJIS2f6-27" value="+calcularTempoEntrega()" style="text;strokeColor=none;fillColor=none;align=left;verticalAlign=top;spacingLeft=4;spacingRight=4;overflow=hidden;rotatable=0;points=[[0,0.5],[1,0.5]];portConstraint=eastwest;" vertex="1" parent="63zUbV-zmZv_8pJIS2f6-20">
          <mxGeometry y="206.14285714285714" width="232" height="33" as="geometry" />
        </mxCell>
        <mxCell id="63zUbV-zmZv_8pJIS2f6-28" value="Relatorio" style="swimlane;fontStyle=1;align=center;verticalAlign=top;childLayout=stackLayout;horizontal=1;startSize=36.888888888888886;horizontalStack=0;resizeParent=1;resizeParentMax=0;resizeLast=0;collapsible=0;marginBottom=0;" vertex="1" parent="1">
          <mxGeometry x="270" y="120" width="410" height="155.88888888888889" as="geometry" />
        </mxCell>
        <mxCell id="63zUbV-zmZv_8pJIS2f6-29" style="line;strokeWidth=1;fillColor=none;align=left;verticalAlign=middle;spacingTop=-1;spacingLeft=3;spacingRight=3;rotatable=0;labelPosition=right;points=[];portConstraint=eastwest;strokeColor=inherit;" vertex="1" parent="63zUbV-zmZv_8pJIS2f6-28">
          <mxGeometry y="36.888888888888886" width="410" height="8" as="geometry" />
        </mxCell>
        <mxCell id="63zUbV-zmZv_8pJIS2f6-30" value="+gerarRelatorioTempoMedio(idCopeira)" style="text;strokeColor=none;fillColor=none;align=left;verticalAlign=top;spacingLeft=4;spacingRight=4;overflow=hidden;rotatable=0;points=[[0,0.5],[1,0.5]];portConstraint=eastwest;" vertex="1" parent="63zUbV-zmZv_8pJIS2f6-28">
          <mxGeometry y="44.888888888888886" width="410" height="37" as="geometry" />
        </mxCell>
        <mxCell id="63zUbV-zmZv_8pJIS2f6-31" value="+gerarRelatorioErrosValidacao()" style="text;strokeColor=none;fillColor=none;align=left;verticalAlign=top;spacingLeft=4;spacingRight=4;overflow=hidden;rotatable=0;points=[[0,0.5],[1,0.5]];portConstraint=eastwest;" vertex="1" parent="63zUbV-zmZv_8pJIS2f6-28">
          <mxGeometry y="81.88888888888889" width="410" height="37" as="geometry" />
        </mxCell>
        <mxCell id="63zUbV-zmZv_8pJIS2f6-32" value="+gerarRelatorioHistoricoPaciente(idPaciente)" style="text;strokeColor=none;fillColor=none;align=left;verticalAlign=top;spacingLeft=4;spacingRight=4;overflow=hidden;rotatable=0;points=[[0,0.5],[1,0.5]];portConstraint=eastwest;" vertex="1" parent="63zUbV-zmZv_8pJIS2f6-28">
          <mxGeometry y="118.88888888888889" width="410" height="37" as="geometry" />
        </mxCell>
        <mxCell id="63zUbV-zmZv_8pJIS2f6-33" value="Dieta" style="swimlane;fontStyle=1;align=center;verticalAlign=top;childLayout=stackLayout;horizontal=1;startSize=40;horizontalStack=0;resizeParent=1;resizeParentMax=0;resizeLast=0;collapsible=0;marginBottom=0;" vertex="1" parent="1">
          <mxGeometry x="860" y="780.68" width="200" height="168" as="geometry" />
        </mxCell>
        <mxCell id="63zUbV-zmZv_8pJIS2f6-34" value="-string nomeDieta" style="text;strokeColor=none;fillColor=none;align=left;verticalAlign=top;spacingLeft=4;spacingRight=4;overflow=hidden;rotatable=0;points=[[0,0.5],[1,0.5]];portConstraint=eastwest;" vertex="1" parent="63zUbV-zmZv_8pJIS2f6-33">
          <mxGeometry y="40" width="200" height="40" as="geometry" />
        </mxCell>
        <mxCell id="63zUbV-zmZv_8pJIS2f6-35" value="-List itensAlimentares" style="text;strokeColor=none;fillColor=none;align=left;verticalAlign=top;spacingLeft=4;spacingRight=4;overflow=hidden;rotatable=0;points=[[0,0.5],[1,0.5]];portConstraint=eastwest;" vertex="1" parent="63zUbV-zmZv_8pJIS2f6-33">
          <mxGeometry y="80" width="200" height="40" as="geometry" />
        </mxCell>
        <mxCell id="63zUbV-zmZv_8pJIS2f6-36" style="line;strokeWidth=1;fillColor=none;align=left;verticalAlign=middle;spacingTop=-1;spacingLeft=3;spacingRight=3;rotatable=0;labelPosition=right;points=[];portConstraint=eastwest;strokeColor=inherit;" vertex="1" parent="63zUbV-zmZv_8pJIS2f6-33">
          <mxGeometry y="120" width="200" height="8" as="geometry" />
        </mxCell>
        <mxCell id="63zUbV-zmZv_8pJIS2f6-37" value="+obterItensDieta()" style="text;strokeColor=none;fillColor=none;align=left;verticalAlign=top;spacingLeft=4;spacingRight=4;overflow=hidden;rotatable=0;points=[[0,0.5],[1,0.5]];portConstraint=eastwest;" vertex="1" parent="63zUbV-zmZv_8pJIS2f6-33">
          <mxGeometry y="128" width="200" height="40" as="geometry" />
        </mxCell>
        <mxCell id="63zUbV-zmZv_8pJIS2f6-38" value="tem" style="curved=1;startArrow=none;endArrow=none;exitX=0.04;exitY=1;entryX=1;entryY=0.31;rounded=0;" edge="1" parent="1" source="63zUbV-zmZv_8pJIS2f6-1" target="63zUbV-zmZv_8pJIS2f6-20">
          <mxGeometry relative="1" as="geometry">
            <Array as="points">
              <mxPoint x="739" y="703" />
            </Array>
          </mxGeometry>
        </mxCell>
        <mxCell id="63zUbV-zmZv_8pJIS2f6-39" value="1" style="edgeLabel;resizable=0;labelBackgroundColor=none;fontSize=12;align=right;verticalAlign=top;" vertex="1" parent="63zUbV-zmZv_8pJIS2f6-38">
          <mxGeometry x="-1" relative="1" as="geometry" />
        </mxCell>
        <mxCell id="63zUbV-zmZv_8pJIS2f6-40" value="1..*" style="edgeLabel;resizable=0;labelBackgroundColor=none;fontSize=12;align=left;verticalAlign=bottom;" vertex="1" parent="63zUbV-zmZv_8pJIS2f6-38">
          <mxGeometry x="1" relative="1" as="geometry" />
        </mxCell>
        <mxCell id="63zUbV-zmZv_8pJIS2f6-41" value="realiza" style="curved=1;startArrow=none;endArrow=none;exitX=0.5;exitY=1;entryX=1;entryY=0.1;rounded=0;" edge="1" parent="1" source="63zUbV-zmZv_8pJIS2f6-15" target="63zUbV-zmZv_8pJIS2f6-20">
          <mxGeometry relative="1" as="geometry">
            <Array as="points">
              <mxPoint x="529" y="703" />
            </Array>
          </mxGeometry>
        </mxCell>
        <mxCell id="63zUbV-zmZv_8pJIS2f6-42" value="1" style="edgeLabel;resizable=0;labelBackgroundColor=none;fontSize=12;align=right;verticalAlign=top;" vertex="1" parent="63zUbV-zmZv_8pJIS2f6-41">
          <mxGeometry x="-1" relative="1" as="geometry" />
        </mxCell>
        <mxCell id="63zUbV-zmZv_8pJIS2f6-43" value="1..*" style="edgeLabel;resizable=0;labelBackgroundColor=none;fontSize=12;align=left;verticalAlign=bottom;" vertex="1" parent="63zUbV-zmZv_8pJIS2f6-41">
          <mxGeometry x="1" relative="1" as="geometry" />
        </mxCell>
        <mxCell id="63zUbV-zmZv_8pJIS2f6-44" value="pertence a" style="curved=1;startArrow=none;endArrow=none;exitX=0.5;exitY=1;entryX=0;entryY=0.1;rounded=0;" edge="1" parent="1" source="63zUbV-zmZv_8pJIS2f6-9" target="63zUbV-zmZv_8pJIS2f6-20">
          <mxGeometry relative="1" as="geometry">
            <Array as="points">
              <mxPoint x="150" y="703" />
            </Array>
          </mxGeometry>
        </mxCell>
        <mxCell id="63zUbV-zmZv_8pJIS2f6-45" value="1" style="edgeLabel;resizable=0;labelBackgroundColor=none;fontSize=12;align=right;verticalAlign=top;" vertex="1" parent="63zUbV-zmZv_8pJIS2f6-44">
          <mxGeometry x="-1" relative="1" as="geometry" />
        </mxCell>
        <mxCell id="63zUbV-zmZv_8pJIS2f6-46" value="1" style="edgeLabel;resizable=0;labelBackgroundColor=none;fontSize=12;align=left;verticalAlign=bottom;" vertex="1" parent="63zUbV-zmZv_8pJIS2f6-44">
          <mxGeometry x="1" relative="1" as="geometry" />
        </mxCell>
        <mxCell id="63zUbV-zmZv_8pJIS2f6-47" value="acessa dados" style="curved=1;startArrow=none;endArrow=none;exitX=0;exitY=0.72;entryX=0;entryY=0.32;rounded=0;" edge="1" parent="1" source="63zUbV-zmZv_8pJIS2f6-28" target="63zUbV-zmZv_8pJIS2f6-20">
          <mxGeometry relative="1" as="geometry">
            <Array as="points">
              <mxPoint x="-80" y="390" />
              <mxPoint x="-80" y="703" />
            </Array>
          </mxGeometry>
        </mxCell>
        <mxCell id="63zUbV-zmZv_8pJIS2f6-48" value="1" style="edgeLabel;resizable=0;labelBackgroundColor=none;fontSize=12;align=right;verticalAlign=top;" vertex="1" parent="63zUbV-zmZv_8pJIS2f6-47">
          <mxGeometry x="-1" relative="1" as="geometry" />
        </mxCell>
        <mxCell id="63zUbV-zmZv_8pJIS2f6-49" value="1..*" style="edgeLabel;resizable=0;labelBackgroundColor=none;fontSize=12;align=left;verticalAlign=bottom;" vertex="1" parent="63zUbV-zmZv_8pJIS2f6-47">
          <mxGeometry x="1" relative="1" as="geometry" />
        </mxCell>
        <mxCell id="63zUbV-zmZv_8pJIS2f6-50" value="acessa dados" style="curved=1;startArrow=none;endArrow=none;exitX=1;exitY=0.88;entryX=0.5;entryY=0;rounded=0;" edge="1" parent="1" source="63zUbV-zmZv_8pJIS2f6-28" target="63zUbV-zmZv_8pJIS2f6-1">
          <mxGeometry relative="1" as="geometry">
            <Array as="points">
              <mxPoint x="885" y="390" />
            </Array>
          </mxGeometry>
        </mxCell>
        <mxCell id="63zUbV-zmZv_8pJIS2f6-51" value="1" style="edgeLabel;resizable=0;labelBackgroundColor=none;fontSize=12;align=left;verticalAlign=top;" vertex="1" parent="63zUbV-zmZv_8pJIS2f6-50">
          <mxGeometry x="-1" relative="1" as="geometry" />
        </mxCell>
        <mxCell id="63zUbV-zmZv_8pJIS2f6-52" value="1..*" style="edgeLabel;resizable=0;labelBackgroundColor=none;fontSize=12;align=right;verticalAlign=bottom;" vertex="1" parent="63zUbV-zmZv_8pJIS2f6-50">
          <mxGeometry x="1" relative="1" as="geometry" />
        </mxCell>
        <mxCell id="63zUbV-zmZv_8pJIS2f6-53" value="acessa dados" style="curved=1;startArrow=none;endArrow=none;exitX=0.5;exitY=1;entryX=0.5;entryY=0;rounded=0;" edge="1" parent="1" source="63zUbV-zmZv_8pJIS2f6-28" target="63zUbV-zmZv_8pJIS2f6-15">
          <mxGeometry relative="1" as="geometry">
            <Array as="points" />
          </mxGeometry>
        </mxCell>
        <mxCell id="63zUbV-zmZv_8pJIS2f6-54" value="1" style="edgeLabel;resizable=0;labelBackgroundColor=none;fontSize=12;align=right;verticalAlign=top;" vertex="1" parent="63zUbV-zmZv_8pJIS2f6-53">
          <mxGeometry x="-1" relative="1" as="geometry" />
        </mxCell>
        <mxCell id="63zUbV-zmZv_8pJIS2f6-55" value="1..*" style="edgeLabel;resizable=0;labelBackgroundColor=none;fontSize=12;align=left;verticalAlign=bottom;" vertex="1" parent="63zUbV-zmZv_8pJIS2f6-53">
          <mxGeometry x="1" relative="1" as="geometry" />
        </mxCell>
        <mxCell id="63zUbV-zmZv_8pJIS2f6-56" value="tem" style="curved=1;startArrow=none;endArrow=none;exitX=0.58;exitY=1;entryX=0.5;entryY=0;rounded=0;" edge="1" parent="1" source="63zUbV-zmZv_8pJIS2f6-1" target="63zUbV-zmZv_8pJIS2f6-33">
          <mxGeometry relative="1" as="geometry">
            <Array as="points">
              <mxPoint x="912" y="703" />
            </Array>
          </mxGeometry>
        </mxCell>
        <mxCell id="63zUbV-zmZv_8pJIS2f6-57" value="1" style="edgeLabel;resizable=0;labelBackgroundColor=none;fontSize=12;align=right;verticalAlign=top;" vertex="1" parent="63zUbV-zmZv_8pJIS2f6-56">
          <mxGeometry x="-1" relative="1" as="geometry" />
        </mxCell>
        <mxCell id="63zUbV-zmZv_8pJIS2f6-58" value="1" style="edgeLabel;resizable=0;labelBackgroundColor=none;fontSize=12;align=left;verticalAlign=bottom;" vertex="1" parent="63zUbV-zmZv_8pJIS2f6-56">
          <mxGeometry x="1" relative="1" as="geometry" />
        </mxCell>
      </root>
    </mxGraphModel>
  </diagram>
</mxfile>
